<svg xmlns="http://www.w3.org/2000/svg" xmlns:xlink="http://www.w3.org/1999/xlink" viewBox="0 0 48.38 47.61"><g transform="translate(0.455 -0.306)"><path d="M 26.741 22.478 C 27.378 22.37 28.799 22.093 29.398 21.849 C 30.32 21.473 31.278 21.184 32.254 20.987 C 32.691 20.899 33.637 20.639 33.637 20.639 C 33.637 20.639 33.637 20.47 32.054 19.208 C 28.937 16.883 28.063 16.517 25.956 15.778 C 25.195 15.575 24.378 15.506 23.624 15.734 C 23.156 15.877 22.717 16.146 22.395 16.517 C 22.229 16.708 22.131 16.916 22.016 17.137 C 21.968 17.228 21.905 17.272 21.913 17.369 C 21.923 17.484 22.093 17.675 22.154 17.776 C 23.335 19.72 24.134 22.922 26.741 22.478 Z" fill="rgb(255,111,0)"></path><path d="M 3.529 39.857 C 2.315 38.163 0.784 35.166 0 33.223 C 2.118 27.025 12.999 22.325 15.323 21.941 C 14.782 22.192 5.831 30.109 3.529 39.857 Z" fill="rgb(255,111,0)"></path><path d="M 33.717 26.783 C 16.535 28.17 10.743 38.86 8.605 44.139 C 11.21 45.926 16.37 47.05 17.903 47.357 C 17.054 43.513 18.84 32.741 27.599 29.535 C 27.587 29.546 27.586 29.549 27.603 29.534 C 27.603 29.533 27.604 29.533 27.605 29.533 C 24.99 32.685 23.473 44.784 33.44 46.087 C 41.897 42.357 47.8 33.898 47.8 24.062 C 47.8 10.773 37.027 0 23.739 0 C 11.834 0 1.947 8.647 0.018 20.003 C 6.202 13.304 11.959 9.766 18.567 8.582 L 18.567 8.583 C 24.084 7.612 29.679 8.485 33.382 11.443 C 40.336 17.001 37.742 20.318 37.355 20.814 L 37.354 20.814 C 37.333 20.841 37.318 20.86 37.312 20.87 C 37.309 20.876 37.304 20.882 37.302 20.887 C 37.296 20.896 37.292 20.903 37.289 20.907 C 37.286 20.913 37.284 20.916 37.284 20.916 C 37.32 20.859 37.98 21.052 38.189 21.113 C 38.214 21.12 38.233 21.126 38.243 21.128 C 38.572 21.218 38.896 21.326 39.211 21.457 C 39.82 21.71 40.401 22.052 40.873 22.516 C 41.927 23.554 42.116 24.988 41.896 26.398 C 41.682 27.774 40.963 29.524 39.77 30.346 C 39.848 29.503 39.862 28.782 39.356 28.043 C 38.891 27.364 38.144 26.91 37.328 26.81 C 36.38 26.694 35.105 26.624 33.717 26.783 Z M 1.746 33.76 L 1.728 33.796 C 1.735 33.812 1.743 33.829 1.75 33.845 C 1.749 33.817 1.747 33.788 1.746 33.76 Z" fill="rgb(255,111,0)"></path></g></svg>